<svg xmlns="http://www.w3.org/2000/svg" width="25.965" height="16.549" viewBox="0 0 25.965 16.549">
  <g id="view" transform="translate(0 -92.835)">
    <g id="Group_66" data-name="Group 66" transform="translate(0 92.835)">
      <g id="Group_65" data-name="Group 65" transform="translate(0 0)">
        <path id="Path_65" data-name="Path 65" d="M25.8,100.6c-.232-.317-5.759-7.77-12.818-7.77S.4,100.287.165,100.6a.857.857,0,0,0,0,1.01c.232.317,5.759,7.77,12.818,7.77s12.586-7.452,12.818-7.769A.856.856,0,0,0,25.8,100.6Zm-12.818,7.068c-5.2,0-9.7-4.946-11.036-6.563,1.331-1.618,5.825-6.562,11.036-6.562s9.7,4.945,11.036,6.563C22.687,102.729,18.193,107.672,12.982,107.672Z" transform="translate(0 -92.835)"/>
      </g>
    </g>
    <g id="Group_68" data-name="Group 68" transform="translate(7.846 95.974)">
      <g id="Group_67" data-name="Group 67" transform="translate(0 0)">
        <path id="Path_66" data-name="Path 66" d="M159.858,154.725a5.136,5.136,0,1,0,5.136,5.136A5.142,5.142,0,0,0,159.858,154.725Zm0,8.56a3.424,3.424,0,1,1,3.424-3.424A3.428,3.428,0,0,1,159.858,163.285Z" transform="translate(-154.722 -154.725)"/>
      </g>
    </g>
  </g>
</svg>
