<svg xmlns="http://www.w3.org/2000/svg" width="20" height="19.017" viewBox="0 0 20 19.017">
  <path id="location" d="M.872,0A.328.328,0,0,0,.547.287L0,4.549a.328.328,0,0,0,.325.369H.984V18.689a.328.328,0,0,0,.328.328H18.689a.328.328,0,0,0,.328-.328V4.918h.655A.328.328,0,0,0,20,4.54L19.34.278A.328.328,0,0,0,19.017,0ZM1.64,18.361V4.918H18.361V18.361H14.754V9.836a.325.325,0,0,0,0-.05,5.25,5.25,0,0,0-1.555-3A4.78,4.78,0,0,0,9.836,5.574,4.355,4.355,0,0,0,6.773,6.707a5.094,5.094,0,0,0-1.525,3.1q0,.015,0,.03v8.525H1.639Zm4.262,0H9.586l-.051-8.2H5.9Zm4.34,0H14.1v-8.2H10.19ZM.7,4.262,1.161.656H18.735l.555,3.607ZM9.527,8.992,7.481,6.967A3.677,3.677,0,0,1,9.51,6.24Zm.657.152-.018-2.9a4.119,4.119,0,0,1,2.31.8L10.184,9.144Zm.572.365,2.208-2.031a4.626,4.626,0,0,1,1.063,2.031ZM7,7.411l2.12,2.1H5.954A4.531,4.531,0,0,1,7,7.411Z" fill-rule="evenodd"/>
</svg>
