<svg xmlns="http://www.w3.org/2000/svg" width="20" height="19.999" viewBox="0 0 20 19.999">
  <path id="phone" d="M18.218,19.06c-.147.13-.288.257-.417.381A2.719,2.719,0,0,1,15.915,20c-2.5,0-6.7-1.627-10.445-5.263A20.3,20.3,0,0,1,.6,7.426c-.813-2.281-.8-4.135.034-4.96.169-.167.352-.375.548-.6C1.917,1.037,2.831,0,4.005,0A2.86,2.86,0,0,1,6.154,1.264c2.3,2.833,1.992,3.565.425,5.089-.088.086-.179.173-.273.267-.39.387.58,2.489,2.72,4.6,1.552,1.534,3.4,2.691,4.285,2.691a.382.382,0,0,0,.3-.086c.1-.1.192-.192.286-.287a2.917,2.917,0,0,1,2.036-1.17,4.515,4.515,0,0,1,2.831,1.57A3.239,3.239,0,0,1,20,16.3C19.982,17.486,19,18.359,18.218,19.06Zm-.094-4.46a3.847,3.847,0,0,0-2.2-1.319c-.472,0-.831.34-1.376.9-.1.1-.2.2-.3.3a1.3,1.3,0,0,1-.942.35c-1.342,0-3.446-1.486-4.936-2.959A14.98,14.98,0,0,1,5.943,8.778c-.743-1.313-.84-2.255-.289-2.8l.279-.272c1.255-1.221,1.481-1.441-.5-3.872A2.021,2.021,0,0,0,4.005.909c-.756,0-1.486.828-2.129,1.558-.206.233-.4.453-.59.642-.445.439-.577,1.883.183,4.015a19.347,19.347,0,0,0,4.649,6.966c3.561,3.454,7.486,5,9.8,5a1.791,1.791,0,0,0,1.248-.3c.135-.129.285-.262.439-.4.688-.613,1.467-1.309,1.477-2.1a2.462,2.462,0,0,0-.955-1.686Z" transform="translate(0.001)"/>
</svg>
