<svg id="logo" xmlns="http://www.w3.org/2000/svg" xmlns:xlink="http://www.w3.org/1999/xlink" width="375.245" height="45.289" viewBox="0 0 375.245 45.289">
  <defs>
    <clipPath id="clip-path">
      <rect id="Rectangle_1" data-name="Rectangle 1" width="375.245" height="45.289" fill="none"/>
    </clipPath>
  </defs>
  <path id="Path_1" data-name="Path 1" d="M1.758,2.59v9.963H15.877L0,46.384H31.275V36.421H15.451L31.382,2.59Z" transform="translate(0 -2.057)"/>
  <g id="Group_1" data-name="Group 1" clip-path="url(#clip-path)">
    <path id="Path_2" data-name="Path 2" d="M163.32,29.242V2.07h10.762V29.615c0,3.676,1.278,6.659,5.434,6.659s5.434-2.983,5.434-6.659V2.07h10.762V29.242c0,10.6-6.18,17.423-16.2,17.423s-16.2-6.873-16.2-17.423" transform="translate(-129.701 -1.644)"/>
    <path id="Path_3" data-name="Path 3" d="M364.061,26.844c4.955,0,7.511-3.09,7.511-7.192s-2.61-7.139-7.511-7.139H361.93V26.844Zm6.659,19.128-3.676-8.9a21.424,21.424,0,0,1-3.3.214h-1.811v8.738H351.22V2.07H362.2c14.492,0,19.873,8.471,19.873,17.582,0,5.169-1.758,10.124-5.595,13.425l6.659,12.892H370.718Z" transform="translate(-278.922 -1.644)"/>
  </g>
  <rect id="Rectangle_2" data-name="Rectangle 2" width="10.762" height="43.794" transform="translate(108.05 0.533)"/>
  <g id="Group_2" data-name="Group 2" clip-path="url(#clip-path)">
    <path id="Path_4" data-name="Path 4" d="M601.51,22.378A22.572,22.572,0,0,1,624.314,0V10.762a11.622,11.622,0,1,0,0,23.228V44.7a22.526,22.526,0,0,1-22.8-22.324" transform="translate(-477.69)"/>
  </g>
  <path id="Path_5" data-name="Path 5" d="M737.91,1.81h10.71V18.327h10.815V1.81H770.2V45.765H759.436V28.61H748.62V45.765H737.91Z" transform="translate(-586.012 -1.437)"/>
  <path id="Path_6" data-name="Path 6" d="M961.01,6.868h-4.35V5.11h10.523V6.868h-4.35V23.7H961.01Z" transform="translate(-759.732 -4.058)"/>
  <path id="Path_7" data-name="Path 7" d="M1017.75,5.33h1.824v8.045h8.9V5.33h1.826V23.875h-1.826V15.108h-8.9v8.767h-1.824Z" transform="translate(-808.247 -4.233)"/>
  <g id="Group_3" data-name="Group 3" clip-path="url(#clip-path)">
    <path id="Path_8" data-name="Path 8" d="M1108.63,11.807a7.786,7.786,0,0,0-15.391,0h15.389ZM1091.3,13.114a9.625,9.625,0,1,1,19.243.36h-17.44a7.8,7.8,0,0,0,15.231,2.073h1.937a9.646,9.646,0,0,1-18.973-2.433" transform="translate(-866.657 -2.756)"/>
    <path id="Path_9" data-name="Path 9" d="M1232.9,22.162c3.922,0,5.634-.947,5.634-3.559,0-2.478-1.69-3.627-5.206-3.627h-2.748v7.188h2.32Zm.428-8.765c2.682,0,4.1-.947,4.1-3.156,0-2.365-1.353-3.267-4.1-3.267h-2.748V13.4ZM1228.82,5.33h4.483c3.9,0,5.881,1.509,5.881,4.8a3.836,3.836,0,0,1-2.637,3.921,4.4,4.4,0,0,1,3.808,4.574c0,3.559-2.345,5.251-7.413,5.251h-4.123Z" transform="translate(-975.868 -4.233)"/>
    <path id="Path_10" data-name="Path 10" d="M1301.3,5.294a7.718,7.718,0,0,0-7.818,7.8,7.808,7.808,0,1,0,15.616,0,7.713,7.713,0,0,0-7.8-7.8m0,17.442a9.567,9.567,0,0,1-9.644-9.644,9.633,9.633,0,0,1,19.265,0,9.576,9.576,0,0,1-9.621,9.644" transform="translate(-1025.773 -2.756)"/>
    <path id="Path_11" data-name="Path 11" d="M1396.76,16.8V5.33h1.826V16.845c0,3.042,1.285,5.544,4.574,5.544s4.619-2.5,4.619-5.544V5.33h1.826V16.8c0,4.236-2.209,7.367-6.445,7.367s-6.4-3.154-6.4-7.367" transform="translate(-1109.238 -4.233)"/>
  </g>
  <path id="Path_12" data-name="Path 12" d="M1472.7,6.868h-4.35V5.11h10.523V6.868h-4.349V23.7H1472.7Z" transform="translate(-1166.091 -4.058)"/>
  <rect id="Rectangle_5" data-name="Rectangle 5" width="1.826" height="18.545" transform="translate(314.834 1.097)"/>
  <g id="Group_4" data-name="Group 4" clip-path="url(#clip-path)">
    <path id="Path_13" data-name="Path 13" d="M1567.9,13.091a7.807,7.807,0,0,0-15.614,0,7.714,7.714,0,0,0,6.984,7.773V18.116h1.667v2.748a7.711,7.711,0,0,0,6.962-7.773m-6.962,9.621v2.614h-1.667V22.713a9.581,9.581,0,0,1-8.81-9.621,9.633,9.633,0,0,1,19.265,0,9.411,9.411,0,0,1-8.788,9.621" transform="translate(-1231.299 -2.756)"/>
    <path id="Path_14" data-name="Path 14" d="M1655.56,16.8V5.33h1.826V16.845c0,3.042,1.285,5.544,4.574,5.544s4.619-2.5,4.619-5.544V5.33h1.826V16.8c0,4.236-2.209,7.367-6.445,7.367s-6.4-3.154-6.4-7.367" transform="translate(-1314.764 -4.233)"/>
    <path id="Path_15" data-name="Path 15" d="M1746.66,11.807a7.786,7.786,0,0,0-15.391,0h15.389Zm-17.328,1.307a9.625,9.625,0,1,1,19.243.36h-17.44a7.8,7.8,0,0,0,15.231,2.073h1.937a9.646,9.646,0,0,1-18.973-2.433" transform="translate(-1373.349 -2.756)"/>
    <path id="Path_16" data-name="Path 16" d="M976.178,134.757a7.786,7.786,0,0,0-15.391,0h15.389Zm-17.328,1.307a9.625,9.625,0,1,1,19.243.36h-17.44a7.8,7.8,0,0,0,15.231,2.073h1.939a9.646,9.646,0,0,1-18.973-2.433" transform="translate(-761.471 -100.397)"/>
  </g>
  <path id="Path_17" data-name="Path 17" d="M1055.766,136.413l-5.634-8.133h2.118l4.551,6.6,4.531-6.6h2.141l-5.634,8.133,7.256,10.412h-2.186l-6.107-8.878-6.106,8.878h-2.186Z" transform="translate(-832.675 -101.874)"/>
  <g id="Group_5" data-name="Group 5" clip-path="url(#clip-path)">
    <path id="Path_18" data-name="Path 18" d="M1138.478,139.978c3.672,0,5.634-1.96,5.634-5s-2.028-5.025-5.634-5.025H1136.5v10.027Zm-3.808-11.808h3.6c5.589,0,7.616,3.267,7.616,6.805s-2.118,6.783-7.458,6.783H1136.5v5h-1.826Z" transform="translate(-901.099 -101.786)"/>
    <path id="Path_19" data-name="Path 19" d="M1215.37,134.757a7.786,7.786,0,0,0-15.391,0h15.389Zm-17.328,1.307a9.625,9.625,0,1,1,19.243.36h-17.44a7.8,7.8,0,0,0,15.231,2.073h1.937a9.646,9.646,0,0,1-18.973-2.433" transform="translate(-951.424 -100.397)"/>
    <path id="Path_20" data-name="Path 20" d="M1307.618,139.97c3.672,0,5.634-1.96,5.634-5s-2.027-5.025-5.634-5.025h-1.982V139.97Zm3.9.992,3.425,5.768h-2.164l-2.929-5.206a11.754,11.754,0,0,1-2.277.224h-1.937v5h-1.826V128.16h3.6c5.589,0,7.616,3.267,7.616,6.805a6.275,6.275,0,0,1-3.516,5.994" transform="translate(-1035.422 -101.778)"/>
  </g>
  <rect id="Rectangle_8" data-name="Rectangle 8" width="1.826" height="18.545" transform="translate(282.271 26.406)"/>
  <g id="Group_6" data-name="Group 6" clip-path="url(#clip-path)">
    <path id="Path_21" data-name="Path 21" d="M1409.588,134.757a7.786,7.786,0,0,0-15.391,0h15.389Zm-17.328,1.307a9.625,9.625,0,1,1,19.243.36h-17.44a7.8,7.8,0,0,0,15.231,2.073h1.939a9.646,9.646,0,0,1-18.973-2.433" transform="translate(-1105.664 -100.397)"/>
  </g>
  <path id="Path_22" data-name="Path 22" d="M1498.02,128.193h1.849l9.554,15.233V128.17h1.824v18.568h-1.779l-9.621-15.323v15.323h-1.826Z" transform="translate(-1189.654 -101.786)"/>
  <g id="Group_7" data-name="Group 7" clip-path="url(#clip-path)">
    <path id="Path_23" data-name="Path 23" d="M1574.43,136.93a9.48,9.48,0,0,1,9.644-9.42v1.8a7.608,7.608,0,1,0,0,15.21v1.8a9.461,9.461,0,0,1-9.644-9.4" transform="translate(-1250.335 -101.262)"/>
    <path id="Path_24" data-name="Path 24" d="M1640.918,134.757a7.786,7.786,0,0,0-15.391,0h15.389Zm-17.328,1.307a9.625,9.625,0,1,1,19.243.36h-17.44a7.8,7.8,0,0,0,15.231,2.073h1.939a9.646,9.646,0,0,1-18.973-2.433" transform="translate(-1289.375 -100.397)"/>
    <path id="Path_25" data-name="Path 25" d="M1715.77,144.656c2.186,0,3.582-1.285,3.582-3.763v-7.752c0-3.516,2.231-5.521,5.43-5.521v1.8c-2.209,0-3.6,1.285-3.6,3.74v7.73c0,3.516-2.231,5.566-5.408,5.566Z" transform="translate(-1362.58 -101.35)"/>
  </g>
</svg>
